# xmcd
#
# Track frame offsets: 
#        150
#        25567
#        52351
#        76829
#        101841
#        120713
#        144084
#        160805
#        181072
#        193841
#        216293
#
# Disc length: 3208 seconds
#
# Revision: 1
# Processed by: cddbd v1.5.2PL0 Copyright (c) Steve Scherf et al.
# Submitted via: ExactAudioCopyFreeDBPlugin 1.0
#
DISCID=920c860b
DTITLE=Carl Verheyen - Atlas Overload
DYEAR=2000
DGENRE=Blues Rock
TTITLE0=Revival Downs
TTITLE1=Chinatown
TTITLE2=Atlas
TTITLE3=Nordenham
TTITLE4=Stand Up
TTITLE5=Find Her Way
TTITLE6=Funkadiddy
TTITLE7=9:05
TTITLE8=Mumba
TTITLE9=Confident lie
TTITLE10=Wasted Blues
EXTD=
EXTT0=
EXTT1=
EXTT2=
EXTT3=
EXTT4=
EXTT5=
EXTT6=
EXTT7=
EXTT8=
EXTT9=
EXTT10=
PLAYORDER=
